<?xml version="1.0" standalone="no"?>
<!DOCTYPE svg PUBLIC "-//W3C//DTD SVG 20010904//EN"
 "http://www.w3.org/TR/2001/REC-SVG-20010904/DTD/svg10.dtd">
<svg version="1.0" xmlns="http://www.w3.org/2000/svg"
 width="1024.000000pt" height="1024.000000pt" viewBox="0 0 1024.000000 1024.000000"
 preserveAspectRatio="xMidYMid meet">
<metadata>
Created by potrace 1.16, written by Peter Selinger 2001-2019
</metadata>
<g transform="translate(0.000000,1024.000000) scale(0.100000,-0.100000)"
fill="#ff5a14" stroke="none">
<path d="M626 9544 c-8 -21 -8 -8817 0 -8838 6 -14 119 -16 1179 -16 l1173 0
6 23 c3 12 6 272 6 578 0 433 -3 559 -12 566 -8 7 -228 13 -573 17 -411 6
-562 11 -567 19 -4 7 -8 1173 -8 2592 0 1419 -3 2864 -7 3210 -3 347 -3 647 1
668 l7 37 564 0 c520 0 565 1 581 17 16 16 16 38 11 248 -4 126 -7 380 -7 563
l0 332 -1174 0 c-1061 0 -1174 -2 -1180 -16z"/>
<path d="M6870 8990 c0 -569 0 -569 21 -581 15 -8 238 -10 810 -7 650 2 790 1
794 -10 3 -8 5 -733 5 -1612 0 -1336 2 -1599 14 -1609 9 -8 164 -10 557 -9
l544 3 3 2198 2 2197 -1375 0 -1375 0 0 -570z"/>
<path d="M3792 9007 c-6 -7 -12 -223 -16 -551 -3 -297 -10 -544 -15 -549 -14
-14 -75 -16 -671 -17 -344 0 -581 -4 -590 -10 -13 -8 -15 -66 -15 -422 0 -227
3 -421 7 -430 7 -17 35 -18 396 -18 337 0 391 -2 402 -15 10 -12 13 -376 16
-1795 2 -1565 1 -1782 -13 -1795 -12 -13 -71 -15 -392 -15 -353 0 -379 -1
-394 -18 -15 -17 -17 -62 -17 -444 0 -379 2 -427 16 -432 9 -3 287 -6 618 -6
498 -1 606 -3 622 -14 18 -14 19 -37 22 -557 2 -375 6 -547 13 -556 9 -10 91
-13 408 -13 232 0 402 4 411 10 13 8 16 83 20 546 l5 536 24 19 c21 17 42 19
245 19 224 0 230 -1 275 -37 2 -1 6 -242 9 -535 3 -338 8 -538 14 -545 15 -18
798 -19 816 -1 9 9 12 141 12 532 0 287 4 526 8 532 18 28 72 41 186 47 236
12 439 49 704 128 279 83 583 288 743 503 120 160 195 356 240 626 17 102 14
370 -5 510 -14 105 -23 142 -55 250 -17 58 -105 224 -155 293 -157 222 -390
386 -724 512 -56 21 -107 44 -113 51 -5 7 -9 36 -7 65 l3 53 75 57 c103 78
267 251 315 335 123 211 180 477 156 728 -13 141 -23 187 -63 316 -60 189
-122 291 -273 445 -215 220 -441 341 -785 419 -187 43 -211 52 -232 89 -10 17
-14 154 -18 587 l-5 565 -395 8 c-262 5 -403 4 -417 -2 l-23 -11 0 -524 c0
-288 -3 -532 -6 -541 -15 -39 -54 -45 -286 -45 -190 0 -227 2 -247 16 l-23 16
3 534 c2 329 -1 537 -6 543 -6 5 -191 11 -411 14 -311 5 -404 4 -412 -6z
m1851 -2040 c254 -89 401 -234 483 -477 29 -86 26 -330 -5 -423 -56 -166 -193
-295 -378 -356 -142 -47 -134 -46 -663 -46 -378 0 -510 3 -526 12 -12 7 -24
27 -28 44 -8 40 -8 1186 0 1227 3 16 16 35 28 41 14 7 177 10 516 8 l495 -2
78 -28z m132 -2161 c277 -34 491 -132 638 -290 125 -136 177 -275 177 -471 -1
-185 -53 -297 -194 -424 -56 -50 -213 -135 -286 -155 -14 -4 -50 -14 -80 -22
-173 -48 -173 -48 -837 -51 -627 -4 -632 -4 -652 16 -21 21 -21 28 -21 694 0
405 4 678 10 687 8 13 62 16 352 20 635 10 780 10 893 -4z"/>
<path d="M8512 3978 c-9 -9 -12 -249 -12 -1034 0 -640 -4 -1032 -10 -1048 l-9
-26 -798 0 c-548 0 -800 -3 -807 -10 -12 -12 -22 -1078 -11 -1137 l6 -33 1363
0 c1136 0 1365 2 1375 14 8 10 10 448 9 1647 l-3 1634 -545 3 c-416 2 -549 -1
-558 -10z"/>
</g>
</svg>
